<svg width="154" height="44" viewBox="0 0 154 44" fill="none" xmlns="http://www.w3.org/2000/svg">
<g clip-path="url(#clip0_334_298)">
<rect width="153.824" height="43.3417" transform="translate(0 0.256958)" fill="white"/>
<path fill-rule="evenodd" clip-rule="evenodd" d="M130.266 36.9243C129.636 36.7233 129.087 36.4908 128.623 36.226L126.431 42.1027C127.41 42.541 128.427 42.8925 129.468 43.1531C130.53 43.418 131.692 43.5504 132.954 43.5504C134.946 43.5504 136.682 43.1336 138.16 42.3036C139.638 41.4736 140.809 40.0424 141.67 38.0183L153.824 9.22471H144.86L139.979 23.4191L135.05 9.22471H125.585L135.896 32.4862L134.502 35.6293C134.233 36.2267 133.908 36.6391 133.528 36.8716C133.147 37.1048 132.642 37.2207 132.009 37.2207C131.48 37.2207 130.899 37.1244 130.266 36.9243ZM116.332 22.6493C116.83 22.6012 117.331 22.5568 117.827 22.5252V27.0588C117.395 27.3906 116.917 27.6591 116.409 27.8564C115.892 28.0565 115.323 28.1528 114.69 28.1528C113.828 28.1528 113.155 27.9324 112.674 27.4831C112.193 27.0347 111.949 26.4613 111.949 25.7638C111.949 25.0986 112.165 24.4936 112.598 23.9443C113.031 23.3988 113.76 23.0384 114.79 22.8736C115.3 22.776 115.815 22.7011 116.332 22.6493ZM118.376 31.6412L119.073 33.5367H126.395V18.1918C126.395 14.9366 125.449 12.5355 123.553 10.9922C121.662 9.44443 119.122 8.67466 115.936 8.67466C113.644 8.67466 111.676 9.008 110.033 9.67318C108.404 10.3268 106.897 11.2527 105.577 12.4114L109.46 16.7448C110.214 16.1422 111.042 15.6395 111.924 15.2489C112.783 14.8827 113.708 14.6972 114.641 14.7041C115.503 14.7041 116.253 14.9366 116.881 15.4017C117.511 15.8667 117.827 16.5958 117.827 17.5943V18.1918C116.987 18.2306 116.148 18.2881 115.311 18.3641C114.32 18.4572 113.332 18.5827 112.349 18.7403C111.225 18.8946 110.123 19.1786 109.064 19.5868C108.033 19.9834 107.128 20.5003 106.347 21.1294C105.575 21.7505 104.948 22.5317 104.507 23.4191C104.059 24.3168 103.834 25.3672 103.834 26.5614C103.834 27.7239 104.03 28.754 104.431 29.648C104.816 30.5298 105.385 31.3198 106.098 31.9655C106.812 32.6149 107.653 33.104 108.615 33.4366C109.576 33.7647 110.622 33.9332 111.752 33.9332C113.247 33.9332 114.557 33.709 115.688 33.2598C116.814 32.8151 117.711 32.2741 118.376 31.6405V31.6412ZM65.1003 3.08238L75.8717 33.5359H82.4956L86.2784 20.7802L90.1138 33.5359H96.7858L105.405 9.22396H96.4887L92.9022 22.1271L89.1675 9.22321H83.4892L79.7545 22.1279L73.5279 3.08314H65.1003V3.08238ZM49.6727 9.22321V15.3008H53.1102V25.9632C53.1102 27.1897 53.2351 28.3003 53.4833 29.2988C53.7315 30.2966 54.1565 31.1424 54.7545 31.8399C55.351 32.5374 56.1401 33.0792 57.1179 33.4599C58.0996 33.8407 59.3023 34.0333 60.7285 34.0333C62.4239 34.0333 63.9103 33.8324 65.189 33.4359C66.467 33.0348 67.6532 32.4577 68.7469 31.6917L66.5069 26.4086C66.049 26.7578 65.5561 27.0586 65.0363 27.3063C64.5028 27.5694 63.9161 27.7066 63.3213 27.7074C62.688 27.7074 62.2833 27.4749 62.099 27.0098C61.9185 26.5448 61.8267 25.8955 61.8267 25.0655V15.3016H67.6728L65.5215 9.22396H61.8267V3.09517H53.111V9.22396H49.6727V9.22321ZM40.5365 15.3249C41.2172 16.0698 41.6061 17.0932 41.7062 18.3912H34.1368C34.2692 17.1285 34.71 16.1142 35.4554 15.349C36.2046 14.5875 37.0741 14.2022 38.0716 14.2022C39.0336 14.2022 39.855 14.5785 40.5365 15.3249ZM35.5073 26.4365C34.6257 25.6231 34.1534 24.4846 34.0849 23.0211H49.8735C49.8412 18.1391 48.755 14.5273 46.6113 12.1856C44.4712 9.84549 41.5903 8.67466 37.9715 8.67466C36.2129 8.67466 34.5776 8.95533 33.0672 9.52043C31.556 10.0855 30.254 10.9155 29.1558 12.0133C28.0576 13.1082 27.1963 14.443 26.5675 16.0224C25.9341 17.6018 25.6212 19.401 25.6212 21.4296C25.6212 23.5222 25.9499 25.3544 26.6148 26.9338C27.2805 28.5087 28.1779 29.8233 29.3077 30.8662C30.4338 31.9166 31.7524 32.706 33.2673 33.2349C34.7777 33.7647 36.3927 34.0326 38.1197 34.0326C39.5466 34.0326 40.8329 33.9167 41.9785 33.6842C43.1248 33.4517 44.1388 33.1191 45.0166 32.6864C45.8498 32.2857 46.6359 31.7936 47.3604 31.2191C48.0419 30.6698 48.6467 30.0641 49.18 29.3989L43.8499 25.2137C43.1805 26.0437 42.4599 26.6615 41.6821 27.0573C40.9006 27.4591 39.9633 27.6555 38.8689 27.6555C37.5074 27.6555 36.3851 27.2506 35.5066 26.4365H35.5073ZM9.80851 27.584C9.45949 27.5313 9.09919 27.4598 8.73438 27.3552V15.598C9.1353 15.4656 9.5317 15.3573 9.93262 15.2775C10.3584 15.1911 10.792 15.1492 11.2264 15.1526C12.621 15.1526 13.7756 15.65 14.6888 16.644C15.5989 17.6425 16.0555 19.1858 16.0555 21.2784C16.0555 23.4387 15.5906 25.0422 14.6609 26.0888C13.7312 27.1348 12.5209 27.6555 11.0263 27.6555C10.5615 27.6555 10.1568 27.6314 9.80776 27.584H9.80851ZM10.8541 8.84773C10.1373 8.95748 9.42905 9.11688 8.73438 9.32479V0.305054H0.0224304V32.089C1.51328 32.6548 3.14029 33.1273 4.89967 33.5088C6.66282 33.8933 8.63809 34.086 10.8262 34.086C12.8173 34.086 14.6527 33.8174 16.3323 33.2884C18.0067 32.7549 19.4615 31.949 20.6875 30.867C21.9181 29.7924 22.8719 28.4215 23.5534 26.7585C24.2341 25.0986 24.5749 23.1384 24.5749 20.8818C24.5749 19.1858 24.3267 17.5943 23.8257 16.0992C23.3293 14.604 22.6071 13.3091 21.6616 12.2112C20.7161 11.1164 19.5419 10.2511 18.1474 9.62126C16.7528 8.9922 15.1777 8.67542 13.4191 8.67542C12.4532 8.67542 11.5987 8.7311 10.8541 8.84773Z" fill="#141414" fill-opacity="0.5"/>
</g>
<defs>
<clipPath id="clip0_334_298">
<rect width="153.824" height="43.3417" fill="white" transform="translate(0 0.256958)"/>
</clipPath>
</defs>
</svg>
