<svg width="79" height="46" viewBox="0 0 79 46" fill="none" xmlns="http://www.w3.org/2000/svg">
<g clip-path="url(#clip0_334_337)">
<path d="M63.1178 0L54.9894 1.72924V34.5848H63.1178V0Z" fill="#141414" fill-opacity="0.5"/>
<path d="M39.9746 9.82153C37.494 9.82153 35.069 10.558 33.0064 11.9377C30.9438 13.3175 29.3362 15.2786 28.3869 17.573C27.4376 19.8675 27.1892 22.3922 27.6732 24.828C28.1571 27.2638 29.3517 29.5012 31.1058 31.2573C32.8599 33.0134 35.0947 34.2093 37.5277 34.6938C39.9607 35.1783 42.4826 34.9296 44.7744 33.9792C47.0663 33.0288 49.0251 31.4194 50.4033 29.3545C51.7815 27.2895 52.5171 24.8618 52.5171 22.3783C52.5168 19.0481 51.1953 15.8544 48.8432 13.4997C46.4911 11.1449 43.301 9.82183 39.9746 9.82153ZM39.9746 26.4471C39.1708 26.4471 38.3851 26.2085 37.7167 25.7614C37.0484 25.3143 36.5275 24.6788 36.2198 23.9354C35.9122 23.1919 35.8318 22.3738 35.9886 21.5845C36.1454 20.7952 36.5325 20.0702 37.1008 19.5012C37.6692 18.9322 38.3934 18.5447 39.1818 18.3877C39.9701 18.2307 40.7873 18.3113 41.5299 18.6192C42.2726 18.9272 42.9073 19.4487 43.3539 20.1178C43.8004 20.7869 44.0388 21.5736 44.0388 22.3783C44.0388 23.4574 43.6106 24.4923 42.8484 25.2554C42.0863 26.0184 41.0525 26.4471 39.9746 26.4471Z" fill="#141414" fill-opacity="0.5"/>
<path d="M39.9746 37.8624C40.7784 37.8624 41.5642 38.1011 42.2325 38.5481C42.9009 38.9952 43.4218 39.6307 43.7294 40.3742C44.037 41.1176 44.1175 41.9357 43.9607 42.725C43.8039 43.5143 43.4168 44.2393 42.8484 44.8083C42.28 45.3773 41.5559 45.7648 40.7675 45.9218C39.9791 46.0788 39.162 45.9983 38.4193 45.6903C37.6767 45.3823 37.042 44.8608 36.5954 44.1917C36.1488 43.5226 35.9105 42.736 35.9105 41.9312C35.9105 40.8521 36.3386 39.8172 37.1008 39.0541C37.863 38.2911 38.8967 37.8624 39.9746 37.8624Z" fill="#141414" fill-opacity="0.5"/>
<path d="M21.8891 16.2978C22.8874 14.6795 23.436 12.8238 23.4784 10.9222C23.5207 9.02072 23.0553 7.14234 22.1301 5.4811C21.2049 3.81987 19.8536 2.43601 18.2156 1.47245C16.5776 0.5089 14.7123 0.000581937 12.8125 0L0.168457 0V34.5848H14.393C16.5091 34.5839 18.5773 33.9533 20.3346 32.7731C22.092 31.5929 23.4592 29.9163 24.2626 27.9563C25.066 25.9964 25.2693 23.8416 24.8467 21.7657C24.4241 19.6898 23.3946 17.7866 21.8891 16.2978ZM8.30806 8.13759H12.8238C13.4975 8.13759 14.1435 8.40551 14.6199 8.88242C15.0963 9.35932 15.3639 10.0061 15.3639 10.6806C15.3639 11.355 15.0963 12.0019 14.6199 12.4788C14.1435 12.9557 13.4975 13.2236 12.8238 13.2236H8.30806V8.13759ZM14.4043 26.4472H8.30806V21.3612H14.4043C15.078 21.3612 15.7241 21.6291 16.2004 22.106C16.6768 22.5829 16.9444 23.2297 16.9444 23.9042C16.9444 24.5786 16.6768 25.2254 16.2004 25.7024C15.7241 26.1793 15.078 26.4472 14.4043 26.4472Z" fill="#141414" fill-opacity="0.5"/>
<path d="M78.4712 18.4225V10.2849H74.407V4.06873L66.2787 5.79796V26.854C66.2787 31.8157 69.3607 34.6751 73.899 34.9125C73.9441 34.9125 74.0006 34.9238 74.0457 34.9238H74.1248C74.2264 34.9238 74.3167 34.9351 74.4183 34.9351H74.5199C75.9044 34.9289 77.2658 34.5794 78.4825 33.9179V27.9277C77.8901 28.0887 77.2787 28.1686 76.6649 28.165C75.0392 28.165 74.4183 26.741 74.4183 24.8083V18.4225H78.4712Z" fill="#141414" fill-opacity="0.5"/>
</g>
<defs>
<clipPath id="clip0_334_337">
<rect width="78.314" height="46" fill="white" transform="translate(0.168457)"/>
</clipPath>
</defs>
</svg>
