<svg width="224" height="52" viewBox="0 0 224 52" fill="none" xmlns="http://www.w3.org/2000/svg">
<g clip-path="url(#clip0_334_320)">
<path fill-rule="evenodd" clip-rule="evenodd" d="M74.5675 25.6505C73.3083 27.0635 72.6787 28.7555 72.6787 30.7282C72.6787 32.7008 73.3083 34.3943 74.5675 35.8058C75.8266 37.2188 77.3679 37.9238 79.1941 37.9238C81.0552 37.9238 82.6154 37.2188 83.876 35.8058C85.1352 34.3943 85.7648 32.7008 85.7648 30.7282C85.7648 28.7555 85.1352 27.0649 83.8746 25.6505C82.6154 24.239 81.0552 23.5325 79.1927 23.5325C77.3679 23.5325 75.8266 24.239 74.5675 25.6505ZM73.0524 20.0989C73.775 19.0392 74.8786 18.1786 76.3632 17.5143C77.8477 16.8514 79.4849 16.52 81.2748 16.52C85.0058 16.52 88.2148 17.8647 90.8989 20.5525C93.583 23.2418 94.925 26.764 94.925 31.1192C94.925 35.4366 93.5626 38.9574 90.8393 41.6844C88.1174 44.4101 84.8735 45.7736 81.1047 45.7736C79.389 45.7736 77.8099 45.4523 76.3646 44.8084C74.9164 44.1644 73.7939 43.2937 72.9942 42.1947V44.4043C72.9981 44.5626 72.9696 44.72 72.9105 44.867C72.8513 45.0139 72.7629 45.1472 72.6505 45.2588C72.538 45.3704 72.404 45.4578 72.2566 45.5159C72.1092 45.5739 71.9516 45.6012 71.7932 45.5963L66.0833 45.5977C65.7024 45.5977 65.4 45.4843 65.1702 45.2576C65.0575 45.1468 64.9688 45.014 64.9098 44.8674C64.8507 44.7208 64.8226 44.5637 64.8271 44.4057V6.4083C64.8271 6.06669 64.9405 5.78323 65.1702 5.555C65.3985 5.32823 65.7024 5.21484 66.0833 5.21484H71.8528C72.1567 5.21484 72.4315 5.32823 72.6802 5.555C72.9274 5.78323 73.0524 6.06669 73.0524 6.4083V20.0975V20.0989ZM106.96 16.8078V31.5335C106.96 33.4087 107.429 34.8885 108.367 35.9744C109.305 37.0632 110.694 37.6055 112.534 37.6055C114.337 37.6055 115.733 37.0632 116.729 35.9744C117.724 34.8885 118.223 33.4451 118.223 31.6454V16.8078C118.223 16.5069 118.345 16.2453 118.588 16.02C118.806 15.8057 119.099 15.6848 119.405 15.6827H125.093C125.466 15.6827 125.767 15.8048 125.993 16.0476C126.216 16.2827 126.337 16.5959 126.332 16.9198V43.1105C126.336 43.2668 126.308 43.4223 126.25 43.5673C126.192 43.7124 126.104 43.8439 125.993 43.9536C125.767 44.1789 125.466 44.2923 125.091 44.2923H119.405C119.094 44.3017 118.792 44.1902 118.561 43.9812C118.449 43.8783 118.361 43.7521 118.302 43.6116C118.244 43.471 118.216 43.3193 118.223 43.1672V40.8108C116.196 43.2486 113.453 44.4653 110.002 44.4653C106.585 44.4653 103.872 43.407 101.864 41.2876C99.8555 39.1711 98.8508 36.3684 98.8508 32.8825V16.8078C98.8508 16.5069 98.9817 16.2453 99.2434 16.02C99.4745 15.8075 99.7757 15.6875 100.09 15.6827H105.721C106.06 15.6827 106.349 15.7946 106.593 16.02C106.708 16.1173 106.799 16.238 106.863 16.374C106.926 16.5099 106.959 16.6579 106.96 16.8078ZM142.698 15.6827C145.171 15.6827 147.354 16.0447 149.247 16.7642C151.138 17.4852 152.591 18.3327 153.603 19.3052C154.501 20.0466 154.539 20.9043 153.716 21.8768L151.636 24.3291C150.961 25.1475 150.062 25.2057 148.937 24.5065C146.727 22.9874 144.648 22.2271 142.699 22.2271C141.648 22.2271 140.795 22.4306 140.14 22.8406C139.486 23.249 139.157 23.7462 139.157 24.3291C139.157 25.4615 140.204 26.2392 142.305 26.6681L146.632 27.5432C152.291 28.6741 155.121 31.5364 155.121 36.1343C155.121 38.937 153.977 41.2454 151.692 43.0567C149.407 44.8694 146.426 45.7736 142.755 45.7736C138.707 45.7736 135.24 44.7212 132.355 42.6191C130.032 40.9445 129.638 39.4836 131.175 38.2378L133.648 36.2506C134.547 35.5485 135.466 35.6081 136.402 36.4251C138.502 38.3352 140.712 39.2888 143.035 39.2888C144.233 39.2888 145.162 39.0548 145.818 38.5881C146.472 38.1186 146.801 37.556 146.801 36.8917C146.801 36.2303 146.493 35.7142 145.875 35.3435C145.255 34.9743 144.252 34.6531 142.867 34.3798L138.371 33.3869C136.084 32.9188 134.276 31.9667 132.946 30.5232C131.615 29.0841 130.949 27.2321 130.949 24.9731C130.949 22.3245 132.018 20.1135 134.154 18.3415C136.291 16.5694 139.137 15.6827 142.698 15.6827ZM179.666 44.6325V30.8328C179.666 28.8166 179.122 27.1987 178.033 25.9819C176.943 24.7652 175.442 24.1561 173.526 24.1561C171.611 24.1561 170.071 24.7754 168.906 26.011C167.743 27.2466 167.16 28.8544 167.16 30.8328V44.6325C167.166 44.7893 167.136 44.9453 167.072 45.0889C167.009 45.2324 166.913 45.3596 166.794 45.4611C166.551 45.6691 166.241 45.7804 165.921 45.7736H160.232C160.074 45.7758 159.918 45.7463 159.773 45.6868C159.627 45.6273 159.495 45.539 159.385 45.4274C159.274 45.3157 159.187 45.1828 159.129 45.0367C159.071 44.8907 159.043 44.7344 159.047 44.5772V6.41267C159.047 6.07105 159.16 5.78759 159.385 5.55646C159.495 5.44443 159.627 5.35637 159.773 5.29783C159.919 5.23929 160.075 5.21153 160.232 5.2163H165.92C166.26 5.2163 166.549 5.32096 166.794 5.53029C166.913 5.63128 167.008 5.75805 167.072 5.90106C167.135 6.04407 167.165 6.19961 167.16 6.35597V20.2763C169.188 17.8051 172.155 16.5694 176.061 16.5694C179.628 16.5694 182.484 17.7091 184.626 19.9914C186.766 22.2736 187.836 25.1446 187.836 28.6073V44.6325C187.842 44.7893 187.812 44.9454 187.748 45.089C187.685 45.2325 187.59 45.3598 187.47 45.4611C187.227 45.6692 186.917 45.7805 186.597 45.7736H180.906C180.586 45.7802 180.275 45.6684 180.032 45.4596C179.913 45.3583 179.818 45.2313 179.754 45.0881C179.691 44.9448 179.661 44.7891 179.666 44.6325Z" fill="#141414" fill-opacity="0.5"/>
<mask id="mask0_334_320" style="mask-type:alpha" maskUnits="userSpaceOnUse" x="191" y="15" width="31" height="31">
<path d="M191.762 15.6827H221.86V45.7737H191.762V15.6827Z" fill="white"/>
</mask>
<g mask="url(#mask0_334_320)">
<path fill-rule="evenodd" clip-rule="evenodd" d="M201.482 25.6505C200.236 27.065 199.613 28.7556 199.613 30.7282C199.613 32.7008 200.236 34.3943 201.482 35.8059C202.728 37.2188 204.287 37.9238 206.156 37.9238C208.025 37.9238 209.584 37.2188 210.831 35.8059C212.076 34.3943 212.7 32.7008 212.7 30.7282C212.7 28.7556 212.076 27.065 210.831 25.6505C209.584 24.239 208.025 23.5325 206.156 23.5325C204.287 23.5325 202.728 24.239 201.482 25.6505ZM195.901 41.5682C193.143 38.7612 191.762 35.1386 191.762 30.6991C191.762 26.2582 193.142 22.6458 195.901 19.8606C198.661 17.0754 201.928 15.6827 205.697 15.6827C207.485 15.6827 209.095 16.0447 210.521 16.7643C211.951 17.4853 213.006 18.4098 213.691 19.5393V17.148C213.691 16.7992 213.815 16.4968 214.063 16.2424C214.311 15.9909 214.587 15.8644 214.892 15.8644H220.66C221.003 15.8644 221.288 15.9909 221.517 16.2424C221.743 16.4893 221.865 16.8134 221.86 17.148V44.3665C221.865 44.5282 221.837 44.6892 221.778 44.8398C221.719 44.9905 221.63 45.1276 221.517 45.2431C221.406 45.3576 221.273 45.4479 221.125 45.5083C220.978 45.5686 220.819 45.5976 220.66 45.5934H214.892C214.587 45.5934 214.311 45.4771 214.063 45.2445C213.943 45.1331 213.847 44.997 213.783 44.8456C213.719 44.6942 213.688 44.5308 213.693 44.3665V41.9171C213.006 43.048 211.951 43.9726 210.523 44.6936C209.095 45.4131 207.469 45.7737 205.64 45.7737C201.908 45.7737 198.661 44.3709 195.901 41.5667" fill="#141414" fill-opacity="0.5"/>
</g>
<mask id="mask1_334_320" style="mask-type:alpha" maskUnits="userSpaceOnUse" x="8" y="-1" width="43" height="30">
<path d="M8.55703 -0.0168457H50.4324V28.7658H8.55703V-0.0168457Z" fill="white"/>
</mask>
<g mask="url(#mask1_334_320)">
<path fill-rule="evenodd" clip-rule="evenodd" d="M46.9836 27.2424L44.5947 28.7658L39.7049 19.9682C38.3657 17.5671 36.4089 15.5675 34.037 14.1766C31.6651 12.7857 28.9644 12.054 26.2146 12.0574H8.55714L25.8482 1.04437C27.1413 0.221931 28.6749 -0.138534 30.1991 0.0216923C31.7234 0.181919 33.1484 0.853395 34.2422 1.92675L48.2152 15.693C51.6204 19.0466 51.0214 24.6708 46.9836 27.2438" fill="#141414" fill-opacity="0.5"/>
</g>
<mask id="mask2_334_320" style="mask-type:alpha" maskUnits="userSpaceOnUse" x="0" y="15" width="47" height="37">
<path d="M0.705391 15.6827H46.5066V51.0069H0.705391V15.6827Z" fill="white"/>
</mask>
<g mask="url(#mask2_334_320)">
<path fill-rule="evenodd" clip-rule="evenodd" d="M39.5535 51.0069H18.9939C17.978 51.0022 16.985 50.7053 16.1333 50.1516C15.2817 49.5979 14.6075 48.8108 14.1913 47.8844L1.10089 19.2006L0.906051 18.7689C0.776591 18.4883 0.70822 18.1834 0.705463 17.8744C0.702705 17.5654 0.765625 17.2594 0.890057 16.9765C0.904597 16.9373 0.924953 16.9038 0.943855 16.8617C1.11905 16.5087 1.38908 16.2115 1.72369 16.0032C2.05831 15.795 2.44429 15.684 2.83843 15.6827H25.2592C29.5282 15.6827 33.4598 18.0464 35.5187 21.8521L40.471 30.9942L45.6327 40.5172C48.1845 45.2314 44.8403 51.0069 39.555 51.0069" fill="#141414" fill-opacity="0.5"/>
</g>
</g>
<defs>
<clipPath id="clip0_334_320">
<rect width="222.463" height="50.8783" fill="white" transform="translate(0.705566 0.128418)"/>
</clipPath>
</defs>
</svg>
