<svg width="234" height="69" viewBox="0 0 234 69" fill="none" xmlns="http://www.w3.org/2000/svg">
<rect width="232.881" height="68.0014" transform="translate(0.824219)" fill="white"/>
<path d="M13.4697 34.5759C13.7794 34.357 13.84 34.2033 13.5302 33.9541C11.4855 32.3752 9.40824 30.7939 7.39381 29.1824C6.59037 28.5326 5.69145 27.9737 4.94623 27.2006H4.91595V41.0826H4.94623C5.19541 40.866 5.47254 40.6495 5.72172 40.4329C8.28342 38.5116 10.8661 36.5275 13.4697 34.5759Z" fill="#292525" fill-opacity="0.5"/>
<path d="M230.699 11.3646C230.699 10.8988 230.606 10.8057 230.14 10.8057H4.38968C3.92392 10.8057 3.83076 10.8988 3.83076 11.3646V21.8442V48.1831V57.5682C3.83076 58.034 3.92392 58.1272 4.38968 58.1272H230.11C230.576 58.1272 230.667 58.034 230.667 57.5682C230.699 42.1352 230.699 26.765 230.699 11.3646ZM229.614 56.4225C229.614 56.9185 229.49 57.0419 228.994 57.0419H5.53546C4.97887 57.0419 4.91599 56.8556 4.91599 56.3899V41.1454H4.88572V27.2611H4.91599V12.543C4.91599 12.0469 5.03942 11.9212 5.53546 11.9212H228.994C229.49 11.9212 229.614 12.0143 229.614 12.543V56.4225Z" fill="white"/>
<path d="M159.363 14.8346C159.363 14.0289 159.363 14.0289 158.587 14.0289H8.91461C8.69756 14.0452 8.47959 14.0452 8.26254 14.0289C7.92253 13.9986 7.82938 14.1546 7.82938 14.4643V26.3017C7.81721 26.4081 7.83368 26.5157 7.87708 26.6136C7.92048 26.7114 7.98923 26.7959 8.07623 26.8583C9.16146 27.6967 10.2467 28.563 11.3366 29.399C13.3999 31.0106 15.4819 32.6035 17.5592 34.2034C17.0026 34.6365 16.5065 35.0697 15.9779 35.4726C13.4372 37.3938 10.8662 39.3151 8.32542 41.2364C8.01568 41.4856 7.79677 41.7324 7.82938 42.1982C7.85965 45.9779 7.85965 49.7901 7.82938 53.5721C7.82938 54.159 7.95281 54.3453 8.60254 54.3453C58.6177 54.3142 108.644 54.3142 158.681 54.3453C159.27 54.3453 159.393 54.1916 159.393 53.6327C159.363 40.7427 159.363 27.7828 159.363 14.8346ZM29.1497 44.0566C27.9713 45.5144 26.3551 46.1339 24.5619 46.227C23.8469 46.2626 23.1302 46.2212 22.4241 46.1036C20.6588 45.8544 18.9308 46.071 17.1563 46.1339H16.63L16.3202 45.8242C16.3046 45.7338 16.3251 45.6408 16.3774 45.5654C16.4297 45.4901 16.5095 45.4383 16.5997 45.4213H16.6602C17.126 45.391 17.622 45.4818 17.9318 45.0487C18.3021 44.5526 18.3347 43.9331 18.3347 43.344C18.3952 41.8256 18.4263 40.3072 18.4278 38.7888V25.2165C18.4278 24.8136 18.3952 24.3804 18.3649 23.9775C18.3021 23.0786 17.8992 22.6757 17.0026 22.5197L16.2876 22.4266C16.1037 22.4266 15.9173 22.366 15.9173 22.1494C15.9173 21.9328 16.1037 21.8071 16.3202 21.8071H18.2415C18.6118 21.8071 18.9541 21.8397 19.3267 21.8397H20.4096C21.928 21.8397 23.479 21.6534 24.9974 21.9002C28.0947 22.366 29.1893 24.8136 28.9564 27.1377C28.8003 29.0008 27.934 30.5471 26.6019 31.8163C26.2596 32.1261 26.1991 32.2518 26.6928 32.4987C31.4342 35.0394 31.7766 40.8358 29.1427 44.0566H29.1497ZM52.9897 22.4592C51.7834 22.6455 51.5645 22.8294 51.5039 24.0381C51.2874 27.2612 51.4411 30.454 51.4108 33.6771C51.4108 35.412 51.4108 37.147 51.1616 38.882C50.8938 40.6798 50.428 42.4148 49.2636 43.9029C47.4658 46.1642 45.0182 46.7533 42.2586 46.4436C38.2623 46.0105 36.5879 43.2508 35.9382 40.0603C35.6743 38.6923 35.5495 37.3012 35.5655 35.9081V25.2468C35.5655 24.937 35.5655 24.597 35.5353 24.2873C35.4421 23.0157 35.0695 22.6455 33.8003 22.4592C33.5208 22.4266 33.0248 22.6129 33.0877 22.1168C33.1506 21.6208 33.5837 21.8397 33.8935 21.8397C36.0616 21.87 38.232 21.9305 40.4002 21.8397L40.9265 21.87L41.1757 22.1797L40.9265 22.4592H40.8659C39.2218 22.862 39.1915 22.862 39.0984 24.5667C39.0378 25.7754 39.0378 26.9514 39.0681 28.1601C39.0984 31.5998 38.9121 35.0091 39.1915 38.4488C39.2847 39.7506 39.5012 41.0105 40.123 42.1749C41.022 43.8051 42.354 44.7156 44.2753 44.6528C46.2595 44.5596 47.4984 43.4767 48.2739 41.7394C48.8631 40.4073 48.9562 38.9448 48.9865 37.5266C49.0168 36.4716 49.0168 35.419 49.0168 34.3967V25.1513C49.0218 24.8513 49.0117 24.5513 48.9865 24.2524C48.8631 23.046 48.5207 22.6734 47.2818 22.5174L46.9721 22.4871C46.7555 22.4871 46.5389 22.4242 46.5692 22.1471C46.5995 21.87 46.7858 21.8676 47.0023 21.8676H47.1281C49.0494 21.8979 51.0009 21.9282 52.9222 21.8676C53.1691 21.8676 53.5114 21.8048 53.5114 22.1774C53.5417 22.4871 53.2017 22.4242 52.9827 22.4568L52.9897 22.4592ZM65.9682 44.5806C65.5357 45.0983 65.0037 45.524 64.4036 45.8325C63.8036 46.1409 63.1478 46.3257 62.475 46.3761C60.8332 46.5624 59.2146 46.4692 57.673 45.88C56.7741 45.5098 56.6809 45.3863 56.6809 44.4245C56.7112 43.0272 56.7741 41.63 56.8043 40.2327V40.0557C56.8975 39.8694 56.8043 39.4968 57.1467 39.5294C57.489 39.562 57.3632 39.8694 57.3632 40.0557C57.3979 40.7076 57.5121 41.3528 57.7033 41.9769C57.9669 42.8945 58.556 43.6844 59.3602 44.1988C60.1644 44.7133 61.1286 44.9169 62.0721 44.7715C63.7162 44.5549 64.9249 42.976 65.0157 41.0221C65.1066 39.0683 64.2728 37.6454 62.8476 36.4996C61.6389 35.5075 60.3371 34.6365 59.2845 33.4931C57.2701 31.2621 56.6506 28.6585 57.4564 25.808C58.169 23.2975 60.4 21.6161 63.0036 21.4694C64.3139 21.41 65.6256 21.5521 66.8927 21.8909C67.3259 22.0144 67.4517 22.2333 67.4191 22.6664C67.3888 23.2556 67.4191 23.8751 67.4191 24.4643H67.3888C67.3888 25.1769 67.4191 25.8895 67.3888 26.6021C67.3888 26.8187 67.4191 27.1587 67.0791 27.1587C66.739 27.1587 66.8625 26.8187 66.8322 26.6021C66.6762 25.2048 66.1801 23.9682 64.8178 23.379C64.2265 23.1019 63.57 22.9937 62.921 23.0664C62.272 23.1392 61.6558 23.39 61.1406 23.7912C59.5593 24.9696 59.4359 27.6035 60.8937 29.2453C61.6366 30.0814 62.5658 30.7334 63.4554 31.3832C65.1298 32.6221 66.6785 33.9868 67.3282 36.0408C68.3832 39.1079 68.1666 42.0212 65.9659 44.5945L65.9682 44.5806ZM78.9816 46.1432C78.5158 46.1432 78.0198 46.1735 77.5564 46.1432C75.9472 46.0198 74.3309 46.0198 72.7218 46.1432C72.3794 46.1735 72.0394 46.1432 71.6994 46.1432C71.4828 46.1432 71.2965 46.0803 71.2639 45.8335C71.2313 45.5866 71.42 45.4609 71.6365 45.4609C72.1023 45.4306 72.6286 45.5237 72.9383 45.058C73.2481 44.5922 73.2784 43.9727 73.311 43.3859C73.4344 40.3584 73.4344 37.3123 73.4041 34.3035C73.3738 31.2947 73.4041 28.2905 73.3715 25.2863C73.3715 24.9137 73.3412 24.5411 73.311 24.1382C73.2178 22.9622 72.9081 22.6525 71.76 22.4964C71.5131 22.4661 71.1708 22.5267 71.1708 22.1564C71.1708 21.7861 71.5434 21.8467 71.7926 21.8467H78.2993C78.5461 21.8467 78.8885 21.7838 78.8885 22.1564C78.8885 22.529 78.5787 22.4335 78.3622 22.4661C77.1535 22.6525 76.9649 22.869 76.874 24.0451C76.8112 24.6972 76.7809 25.3166 76.7809 25.9664V41.6393C76.7809 42.3845 76.8438 43.16 76.874 43.9029C76.9346 44.9555 77.3398 45.3584 78.3924 45.4213H78.9187C79.1679 45.4213 79.5079 45.4213 79.5079 45.7613C79.5079 46.1013 79.2285 46.1339 78.9816 46.1339V46.1432ZM103.201 22.4266C101.683 22.7363 101.622 22.7689 101.466 24.2896C101.28 26.2412 101.406 28.1927 101.343 30.1466C101.25 35.1046 101.189 40.0324 101.126 44.9904V45.5773C101.063 45.887 101.126 46.3225 100.754 46.4459C100.381 46.5694 100.104 46.2899 99.8874 46.0431C99.3587 45.4236 98.8324 44.7715 98.3364 44.1521C94.3401 39.194 90.3416 34.236 86.6923 28.9985L86.4455 28.6887C86.4455 30.7358 86.4129 32.7479 86.4455 34.7623C86.506 37.4893 86.5992 40.2164 86.662 42.9434C86.6653 43.341 86.717 43.7367 86.8157 44.1218C87.0323 45.0533 87.3747 45.3304 88.3667 45.3607L88.7696 45.3933C88.9536 45.4236 89.1725 45.4539 89.1725 45.7333C89.1725 46.0128 88.9536 46.0733 88.7067 46.0733C88.3341 46.0733 87.9941 46.1059 87.6215 46.0733C85.9797 45.9196 84.3612 46.0431 82.731 46.0733C82.4818 46.0733 82.1115 46.1991 82.0789 45.7636C82.0463 45.3281 82.4515 45.3933 82.731 45.3607C83.8465 45.3002 84.1562 45.051 84.2191 43.9634C84.4357 40.1838 84.4031 36.4041 84.466 32.5918C84.5288 29.1522 84.5591 25.6822 84.5894 22.2426V21.9934C84.6523 21.7465 84.6523 21.3739 84.962 21.3111C85.2717 21.2482 85.458 21.53 85.6117 21.7465C87.1301 23.761 88.6392 25.7754 90.1995 27.7875C93.2037 31.6626 96.2102 35.5657 99.1538 39.5014L99.3098 39.6877L99.403 39.0985C99.3401 34.3897 99.247 29.6785 99.1538 24.9696C99.1439 24.5534 99.1026 24.1384 99.0304 23.7284C98.8767 22.7968 98.4412 22.4894 97.2954 22.3963C97.0159 22.366 96.5828 22.5197 96.5828 22.0865C96.5828 21.6534 97.0159 21.7768 97.3257 21.7768C99.1235 21.8071 100.952 21.87 102.749 21.7768H103.122L103.462 22.0563C103.586 22.3334 103.432 22.3963 103.213 22.4266H103.201ZM119.855 41.7022C119.835 42.9587 119.722 44.212 119.515 45.4515C119.421 46.0104 119.142 46.2573 118.553 46.2573C117.097 46.227 115.639 46.2573 114.184 46.1339C112.107 45.9476 109.992 46.0407 107.924 46.1641C107.727 46.1692 107.53 46.159 107.335 46.1339L107.088 45.8544L107.305 45.4818L107.491 45.4213C108.916 45.1418 109.102 44.9555 109.133 43.4371C109.195 41.7029 109.226 39.968 109.226 38.2322V25.3096C109.226 24.8765 109.196 24.441 109.163 24.0078C109.102 23.0763 108.697 22.6757 107.766 22.5523C107.517 22.5197 107.237 22.4894 106.99 22.4592L106.711 22.21L106.96 21.9305C107.154 21.8954 107.35 21.8751 107.547 21.87C109.221 21.9305 110.893 21.9934 112.072 21.9631H117.093C117.693 21.9813 118.292 21.8865 118.858 21.6837C119.168 21.5602 119.354 21.6208 119.293 21.9631C119.074 23.3884 119.107 24.8136 118.921 26.2388C118.89 26.3949 118.858 26.6417 118.611 26.6114C118.364 26.5812 118.455 26.3623 118.425 26.2086C118.43 26.0117 118.42 25.8147 118.394 25.6194C118.178 24.3478 117.682 23.9449 116.41 23.8518C115.295 23.7912 114.179 23.7284 113.064 23.7284C112.724 23.7284 112.568 23.8215 112.568 24.1941V31.8489C112.568 32.0958 112.568 32.3147 112.908 32.2821C114.335 32.2518 115.791 32.2518 117.216 32.1889C117.448 32.1902 117.677 32.1344 117.883 32.0263C118.088 31.9183 118.264 31.7614 118.394 31.5695L118.734 31.3203L118.89 31.7558C118.797 32.7781 118.704 33.7702 118.641 34.7832C118.611 35.3096 118.581 35.8661 118.581 36.3948C118.581 36.5811 118.518 36.7977 118.332 36.7977C118.085 36.7977 118.115 36.5485 118.115 36.3948C117.929 34.3804 117.712 34.1638 115.667 34.066C114.799 34.0334 113.963 34.0031 113.106 33.9402C112.766 33.9402 112.61 34.0031 112.61 34.406C112.61 36.8862 112.579 39.3943 112.642 41.8745C112.673 43.486 113.355 44.1684 114.997 44.2615C115.646 44.2918 116.268 44.2918 116.918 44.2615C118.436 44.1684 119.086 43.5466 119.335 42.0608L119.428 41.5345C119.489 41.3482 119.428 41.0058 119.738 41.0687C119.892 41.1619 119.862 41.4716 119.862 41.6882L119.855 41.7022ZM133.124 44.5712C132.692 45.089 132.16 45.5147 131.56 45.8231C130.96 46.1316 130.304 46.3164 129.631 46.3668C127.991 46.5822 126.322 46.4017 124.766 45.8405C124.114 45.5936 123.774 45.1907 123.835 44.4432C123.928 43.0179 123.928 41.623 123.96 40.1977V40.0138C124.051 39.8275 123.96 39.4548 124.3 39.4851C124.58 39.5177 124.517 39.8275 124.517 40.0138C124.537 40.6672 124.651 41.3144 124.857 41.935C125.479 43.8866 127.214 45.0021 129.228 44.7296C130.87 44.513 132.079 42.9318 132.172 40.9802C132.265 39.0287 131.426 37.6034 129.971 36.4553C128.762 35.4633 127.461 34.5923 126.408 33.4512C124.424 31.2807 123.835 28.74 124.545 25.9198C125.167 23.379 127.521 21.5509 130.155 21.4275C131.428 21.3741 132.702 21.5099 133.935 21.8304C134.431 21.9538 134.647 22.1704 134.587 22.6967C134.555 23.2746 134.555 23.8538 134.587 24.4317H134.524C134.524 25.1443 134.554 25.8569 134.524 26.5695C134.524 26.7558 134.554 27.1284 134.214 27.1284C133.874 27.1284 133.997 26.7884 133.967 26.5695C133.811 25.1722 133.315 23.9356 131.953 23.3488C131.359 23.065 130.698 22.9525 130.044 23.0241C129.39 23.0957 128.768 23.3485 128.25 23.754C126.671 24.93 126.545 27.5639 128.003 29.2081C128.746 30.0441 129.675 30.6938 130.565 31.3459C132.239 32.5848 133.788 33.9472 134.44 36.0035C135.523 39.1009 135.306 42.0142 133.106 44.5876L133.124 44.5712ZM148.569 44.5549C148.135 45.0862 147.598 45.5249 146.992 45.8449C146.385 46.1649 145.72 46.3598 145.036 46.418C143.398 46.6272 141.733 46.4419 140.181 45.8777C139.531 45.6309 139.188 45.228 139.249 44.4804C139.342 43.0552 139.342 41.6602 139.405 40.235L139.435 39.9858C139.528 39.7995 139.466 39.4898 139.775 39.5201C140.024 39.5503 139.992 39.7972 139.992 40.0161C140.014 40.6894 140.129 41.3564 140.334 41.9979C140.954 43.9495 142.689 45.0673 144.703 44.7925C146.333 44.5759 147.554 42.9946 147.647 41.0431C147.74 39.0915 146.904 37.664 145.446 36.5182C144.237 35.5261 142.938 34.6552 141.883 33.5117C139.899 31.3436 139.321 28.8029 140.02 25.9827C140.639 23.4419 142.994 21.6115 145.628 21.488C146.904 21.4361 148.18 21.5719 149.417 21.8909C149.882 22.0144 150.129 22.2333 150.066 22.7596C150.035 23.3375 150.035 23.9166 150.066 24.4945H150.003C150.003 25.2072 150.036 25.9198 150.003 26.6324C150.003 26.849 150.036 27.1913 149.694 27.1913C149.351 27.1913 149.477 26.849 149.447 26.6324C149.291 25.2351 148.795 23.9985 147.432 23.4093C146.846 23.1298 146.193 23.0194 145.547 23.0905C144.901 23.1617 144.288 23.4116 143.776 23.8122C142.195 24.9906 142.072 27.6245 143.527 29.2663C144.272 30.1023 145.201 30.7544 146.1 31.4041C147.772 32.6128 149.291 33.9775 149.973 35.9919C150.965 39.0194 150.779 41.942 148.576 44.5433" fill="#141414" fill-opacity="0.5"/>
<path d="M226.98 14.0288H161.44C160.665 14.0288 160.665 14.0288 160.665 14.8043V53.5628C160.665 54.3359 160.665 54.3359 161.44 54.3359H227.01C227.786 54.3359 227.786 54.3359 227.786 53.5628V14.8672C227.816 14.0288 227.816 14.0288 226.98 14.0288ZM175.849 46.2573C173.774 46.5367 171.696 46.2573 169.652 46.071C168.682 46.0104 167.709 46.0104 166.738 46.071C166.212 46.1036 165.653 46.1036 165.127 46.1338C164.88 46.1338 164.631 46.1338 164.631 45.7938C164.631 45.4538 164.88 45.4515 165.097 45.4515C166.398 45.4818 166.582 44.9252 166.675 43.7165C166.769 42.5079 166.801 41.3295 166.801 40.1208V24.5038C166.738 23.0483 166.305 22.5825 164.88 22.4894L164.507 22.4591L164.198 22.1494C164.198 21.9631 164.351 21.8699 164.507 21.8397L165.034 21.8071C166.645 21.7768 168.257 21.9934 169.961 21.8397C172.316 21.8397 174.796 21.6836 177.213 22.0865C181.172 22.7688 183.75 25.0604 184.866 28.9029C186.2 33.3673 185.828 37.7059 183.347 41.7324C181.643 44.492 178.979 45.7938 175.849 46.2573ZM206.403 46.1036C204.514 46.1036 202.623 46.1641 200.732 46.0104C200.546 45.9778 200.266 46.1036 200.175 45.7938C200.085 45.4841 200.362 45.4818 200.515 45.3909C200.621 45.3319 200.7 45.2339 200.735 45.1178C200.77 45.0017 200.758 44.8767 200.702 44.7691C200.052 42.601 199.37 40.4329 198.718 38.2927C198.705 38.2408 198.682 38.1921 198.65 38.1495C198.618 38.107 198.577 38.0716 198.53 38.0455C198.484 38.0195 198.432 38.0034 198.379 37.9982C198.326 37.9931 198.272 37.999 198.222 38.0156H192.614C192.367 38.0156 192.211 38.0459 192.118 38.3253C191.561 40.214 190.816 42.0514 190.446 43.9634C190.259 44.8949 190.413 45.5749 191.61 45.4515C191.859 45.4212 192.169 45.4212 192.169 45.8241C192.169 46.227 191.859 46.1641 191.61 46.1641C189.747 46.0104 187.861 46.1036 186.002 46.1641C185.753 46.1641 185.443 46.1967 185.443 45.8241C185.443 45.5144 185.693 45.4515 185.939 45.4515C187.085 45.5144 187.768 44.8623 188.14 43.8726C188.76 42.1981 189.316 40.4935 189.905 38.8214C191.768 33.3044 193.655 27.82 195.515 22.3031C195.639 21.9305 195.702 21.4368 196.165 21.4042C196.692 21.3739 196.754 21.9305 196.878 22.3031C199.079 28.7795 201.247 35.2257 203.447 41.7021C203.731 42.6346 204.127 43.5292 204.626 44.3663C205.059 45.0812 205.618 45.4841 206.489 45.4515C206.738 45.4515 207.078 45.4212 207.048 45.7938C206.955 46.1338 206.645 46.1036 206.396 46.1036H206.403ZM222.993 22.4591C222.526 22.511 222.078 22.6765 221.689 22.9412C221.3 23.2058 220.982 23.5616 220.762 23.9775C219.09 26.7045 217.788 29.5853 216.424 32.4684C215.897 33.5513 215.308 34.6365 215.215 35.8754C215.185 36.3714 215.154 36.8675 215.154 37.3635C215.185 39.534 215.061 41.7021 215.248 43.8726C215.341 44.9881 215.744 45.3583 216.878 45.4212C217.116 45.4162 217.354 45.4263 217.59 45.4515C217.807 45.4818 217.993 45.5749 217.993 45.8241C217.975 45.9217 217.92 46.0084 217.839 46.0662C217.758 46.1239 217.658 46.1481 217.56 46.1338C216.908 46.1338 216.289 46.1641 215.639 46.1036C213.841 45.9172 212.043 46.1036 210.245 46.1338H209.779L209.47 45.8241L209.747 45.4818L210.089 45.4515C211.081 45.3909 211.452 45.0812 211.514 44.0891C211.67 41.4553 211.761 38.8214 211.545 36.2177C211.455 35.3996 211.203 34.6077 210.802 33.8889C209.377 31.0385 207.951 28.1554 206.494 25.3049C206.202 24.7184 205.86 24.1581 205.471 23.6305C205.269 23.3303 205.009 23.074 204.706 22.8771C204.402 22.6802 204.062 22.5467 203.706 22.4847C203.489 22.4545 203.27 22.4219 203.303 22.1447C203.336 21.8676 203.55 21.835 203.799 21.835C205.844 21.8955 207.858 21.8955 209.903 21.835C210.089 21.835 210.336 21.835 210.369 22.0819C210.401 22.3287 210.182 22.4219 209.996 22.4545C209.47 22.5779 209.377 22.9505 209.53 23.4139L209.686 23.8797C211.142 27.0702 212.567 30.2327 214.085 33.5466C215.42 30.2001 217.113 27.2262 218.177 23.9402C218.457 23.0436 218.363 22.8876 217.525 22.4219L217.309 22.0516L217.618 21.835H217.805C219.54 21.9258 221.277 21.8955 223.012 21.835C223.228 21.835 223.445 21.835 223.478 22.0819C223.447 22.3613 223.231 22.4219 222.982 22.4545" fill="#141414" fill-opacity="0.5"/>
<path d="M103.21 21.8396H102.84C101.042 21.9305 99.2142 21.8699 97.4164 21.8396C97.1369 21.8396 96.7038 21.7465 96.6735 22.1494C96.6432 22.5523 97.1067 22.4265 97.3861 22.4591C98.5319 22.5523 98.965 22.862 99.1211 23.7912C99.1933 24.2005 99.2346 24.6146 99.2445 25.0301C99.3377 29.7413 99.4308 34.4502 99.4937 39.1311L99.4005 39.7179L99.2445 39.534C96.3009 35.5983 93.2944 31.6928 90.2902 27.82C88.7392 25.8359 87.2208 23.7912 85.7025 21.7768C85.5488 21.5602 85.3624 21.2807 85.0527 21.3436C84.743 21.4065 84.743 21.7768 84.6801 22.0236V22.2728C84.6498 25.7125 84.6196 29.1824 84.5567 32.622C84.4938 36.404 84.5567 40.1837 84.3075 43.996C84.2469 45.0812 83.9372 45.3583 82.8217 45.4212C82.5423 45.4212 82.1394 45.3583 82.1696 45.8241C82.1999 46.2899 82.5725 46.1338 82.8217 46.1338C84.4519 46.1035 86.0821 45.9778 87.7122 46.1338C88.0546 46.1641 88.4248 46.1338 88.7975 46.1338C89.0443 46.1338 89.2632 46.0709 89.2632 45.7938C89.2632 45.5167 89.0466 45.4817 88.8627 45.4515L88.4598 45.4212C87.498 45.3583 87.1254 45.0812 86.9088 44.1823C86.81 43.7972 86.7584 43.4015 86.7551 43.0039C86.6619 40.2768 86.5688 37.5498 86.5385 34.8228C86.5059 32.8083 86.5385 30.7637 86.5385 28.7492L86.7854 29.059C90.4416 34.2662 94.4402 39.2242 98.4294 44.2125C98.9255 44.8623 99.4518 45.4817 99.9804 46.1035C100.197 46.3504 100.474 46.6299 100.847 46.5064C101.219 46.383 101.189 45.9475 101.219 45.6378C101.234 45.4417 101.234 45.2447 101.219 45.0486C101.28 40.0905 101.343 35.1628 101.436 30.2047C101.466 28.2532 101.343 26.3016 101.529 24.3478C101.683 22.8294 101.746 22.8294 103.264 22.4847C103.45 22.4544 103.604 22.3613 103.604 22.1447L103.21 21.8396Z" fill="white"/>
<path d="M26.6742 32.5289C26.2084 32.282 26.241 32.1586 26.581 31.8489C27.9131 30.5773 28.7818 29.0287 28.9378 27.168C29.1218 24.8391 28.0691 22.3962 24.9788 21.9305C23.4604 21.7139 21.9118 21.9002 20.3934 21.8699H19.2942C18.9239 21.8699 18.5816 21.8396 18.209 21.8396H16.2877C16.0711 21.8396 15.8848 21.9305 15.8848 22.1796C15.8848 22.4288 16.0711 22.4591 16.2574 22.4591C16.4968 22.4739 16.7349 22.5051 16.97 22.5522C17.8689 22.6757 18.2416 23.1088 18.3347 24.0078C18.365 24.4106 18.3953 24.8438 18.3953 25.2467C18.3953 29.7716 18.4279 34.2965 18.3953 38.8213C18.3953 40.3397 18.3347 41.8488 18.3021 43.3765C18.2718 43.9634 18.2718 44.5852 17.8992 45.0812C17.5895 45.5144 17.0935 45.4212 16.63 45.4515H16.5671C16.3808 45.5143 16.2574 45.6075 16.2877 45.8544L16.5997 46.1641H17.1261C18.8913 46.1338 20.6193 45.8846 22.3636 46.1338C23.0713 46.2364 23.7866 46.2777 24.5014 46.2572C26.3295 46.1338 27.9085 45.5144 29.0868 44.0891C31.7836 40.8288 31.4413 35.0393 26.6695 32.5289H26.6742ZM22.3636 23.2882C23.4791 23.1647 24.4595 23.4745 25.058 24.4339C26.3295 26.481 26.5461 28.6491 25.4609 30.8498C24.9043 31.9653 23.0133 32.5219 21.8978 31.9956C21.6183 31.8722 21.6812 31.6556 21.6812 31.439V27.664C21.6812 26.4553 21.7115 25.2164 21.6812 24.0078C21.6812 23.5117 21.8978 23.358 22.3636 23.2951V23.2882ZM26.8861 43.0342C25.9546 45.0183 23.7259 44.988 22.4614 44.2125C22.2868 44.1008 22.1402 43.9506 22.0328 43.7734C21.9254 43.5961 21.8601 43.3966 21.8419 43.1902C21.7384 42.5553 21.6971 41.9118 21.7185 41.2689V34.1404C21.7185 33.6444 21.8745 33.5512 22.3379 33.521C24.0124 33.3975 25.1884 34.173 26.0873 35.5051C27.0491 36.9303 27.4217 38.479 27.5126 40.0906C27.4217 41.1758 27.3286 42.1352 26.8931 43.0342" fill="white"/>
<path d="M52.9479 21.8397C51.0266 21.9002 49.0751 21.8699 47.1538 21.8397H47.0304C46.8115 21.8397 46.5949 21.8699 46.5949 22.1494C46.5949 22.4288 46.7812 22.4591 46.9978 22.4591L47.3075 22.4894C48.5488 22.6454 48.8888 23.0157 49.0122 24.2244C49.0393 24.5232 49.0502 24.8233 49.0448 25.1233V34.357C49.0448 35.412 49.0448 36.4646 49.0122 37.487C48.9819 38.9145 48.8888 40.37 48.2996 41.7021C47.5567 43.4371 46.2851 44.5223 44.3033 44.6155C42.3821 44.7086 41.043 43.7794 40.151 42.1353C39.5293 40.9895 39.3127 39.718 39.2195 38.4092C38.9727 34.9695 39.159 31.5601 39.0961 28.1205C39.0961 26.9118 39.0658 25.7334 39.159 24.5248C39.2521 22.8201 39.2824 22.8201 40.9242 22.4172H40.9871L41.2339 22.1401L40.9871 21.8606L40.4608 21.8303C38.2903 21.9212 36.1222 21.8606 33.9517 21.8303C33.6723 21.8303 33.2089 21.644 33.146 22.1075C33.0831 22.5709 33.6117 22.4172 33.8586 22.4498C35.1301 22.6361 35.5027 23.0064 35.5936 24.2779C35.6207 24.597 35.6316 24.9172 35.6262 25.2374V35.8987C35.6079 37.293 35.7296 38.6856 35.9895 40.0556C36.6415 43.2461 38.2833 46.0058 42.3122 46.4389C45.0695 46.7486 47.4868 46.1595 49.3149 43.8982C50.4933 42.4403 50.9265 40.7054 51.2059 38.8773C51.4528 37.1423 51.4528 35.4073 51.4528 33.6724C51.4854 30.4493 51.362 27.2565 51.5459 24.0334C51.6088 22.8247 51.8254 22.6361 53.034 22.4545C53.2506 22.4219 53.593 22.4847 53.593 22.1447C53.4998 21.7721 53.1901 21.8024 52.9409 21.835" fill="white"/>
<path d="M119.636 41.1455C119.326 41.0826 119.389 41.4226 119.326 41.6112L119.233 42.1376C118.986 43.6257 118.334 44.2451 116.815 44.3383C116.166 44.3686 115.544 44.3686 114.894 44.3383C113.283 44.2451 112.565 43.5628 112.54 41.9536C112.507 39.4734 112.54 36.9629 112.507 34.4851C112.507 34.0822 112.693 34.0193 113.003 34.0193C113.872 34.0496 114.708 34.1125 115.577 34.1427C117.591 34.2056 117.838 34.4222 118.024 36.4716C118.024 36.6579 117.994 36.8744 118.241 36.8744C118.488 36.8744 118.49 36.6276 118.49 36.4716C118.52 35.9452 118.52 35.3887 118.55 34.86C118.613 33.8377 118.706 32.8456 118.8 31.8326L118.644 31.3994L118.304 31.6463C118.173 31.8385 117.997 31.9957 117.792 32.1041C117.586 32.2126 117.357 32.2688 117.125 32.268C115.7 32.3286 114.244 32.3286 112.819 32.3589C112.507 32.3589 112.477 32.1423 112.477 31.9257V24.2546C112.477 23.8843 112.6 23.7888 112.973 23.7888C114.088 23.7888 115.204 23.8494 116.319 23.9123C117.621 24.0054 118.087 24.4083 118.304 25.6798C118.329 25.8744 118.339 26.0706 118.334 26.2667C118.334 26.4227 118.304 26.6393 118.52 26.6696C118.737 26.6999 118.8 26.453 118.83 26.2993C119.016 24.8741 118.953 23.4488 119.202 22.0213C119.263 21.6813 119.077 21.6184 118.767 21.7441C118.201 21.9462 117.602 22.0402 117.002 22.0213H111.981C110.805 22.0539 109.13 21.991 107.456 21.9281C107.259 21.9341 107.063 21.9551 106.869 21.991L106.62 22.2705L106.899 22.5173C107.146 22.5499 107.426 22.5802 107.675 22.6105C108.606 22.7665 109.007 23.1368 109.072 24.0683C109.105 24.5015 109.135 24.9346 109.135 25.3701C109.135 29.6761 109.165 33.9867 109.165 38.2904C109.165 40.0276 109.105 41.7626 109.072 43.4976C109.042 45.016 108.856 45.2023 107.43 45.4794L107.244 45.512L107.018 45.8776L107.267 46.1571C107.462 46.1842 107.658 46.1951 107.854 46.1897C109.962 46.0639 112.046 45.9708 114.114 46.1571C115.572 46.2805 117.027 46.2502 118.485 46.2805C119.072 46.2805 119.352 46.0337 119.445 45.4748C119.667 44.2372 119.78 42.9827 119.785 41.7254C119.848 41.4785 119.878 41.1688 119.631 41.1385" fill="white"/>
<path d="M146.068 31.3831C145.171 30.7333 144.24 30.0812 143.506 29.2452C142.05 27.6034 142.144 24.9695 143.753 23.7911C144.27 23.3892 144.889 23.1387 145.54 23.0676C146.191 22.9964 146.85 23.1074 147.442 23.3882C148.804 23.9774 149.305 25.2164 149.456 26.6113C149.486 26.8279 149.363 27.1679 149.703 27.1679C150.043 27.1679 149.982 26.8279 150.013 26.6113C150.045 25.8987 150.013 25.1861 150.013 24.4735H150.076C150.076 23.8843 150.045 23.3254 150.076 22.7362C150.138 22.2099 149.92 21.9933 149.426 21.8698C148.192 21.5505 146.917 21.4147 145.644 21.467C142.98 21.5904 140.656 23.4185 140.036 25.9592C139.323 28.7794 139.91 31.3155 141.899 33.4906C142.954 34.6364 144.254 35.5353 145.462 36.4971C146.92 37.6615 147.756 39.0984 147.663 41.0197C147.57 42.941 146.361 44.5525 144.719 44.7691C143.775 44.9249 142.806 44.7256 141.999 44.2097C141.192 43.6937 140.605 42.8975 140.35 41.9745C140.145 41.3322 140.03 40.6644 140.008 39.9903C140.008 39.804 140.041 39.5246 139.792 39.4943C139.482 39.464 139.512 39.7738 139.452 39.9601L139.421 40.2069C139.389 41.6322 139.358 43.0271 139.265 44.4524C139.202 45.1976 139.545 45.6005 140.197 45.8496C141.778 46.4388 143.42 46.532 145.062 46.376C145.749 46.3151 146.418 46.1192 147.03 45.7995C147.642 45.4798 148.184 45.0426 148.627 44.5129C150.795 41.9093 151.012 38.9959 149.959 35.9289C149.246 33.9447 147.728 32.5824 146.084 31.3737" fill="white"/>
<path d="M130.604 31.3831C129.708 30.7333 128.776 30.0812 128.043 29.2452C126.587 27.6034 126.711 24.9695 128.289 23.7911C128.807 23.3892 129.426 23.1387 130.077 23.0676C130.728 22.9964 131.386 23.1074 131.978 23.3882C133.341 23.9774 133.841 25.2163 133.993 26.6113C134.023 26.8279 133.9 27.1679 134.24 27.1679C134.58 27.1679 134.519 26.7976 134.549 26.6113C134.582 25.8987 134.549 25.1861 134.549 24.4735H134.612C134.612 23.8843 134.582 23.3254 134.612 22.7362C134.675 22.2099 134.458 21.9933 133.962 21.8698C132.728 21.5505 131.454 21.4147 130.18 21.467C127.516 21.5904 125.192 23.3882 124.573 25.9592C123.86 28.7794 124.479 31.3155 126.436 33.4906C127.491 34.6364 128.79 35.5051 129.999 36.4971C131.457 37.6615 132.293 39.0984 132.2 41.0197C132.106 42.941 130.898 44.5525 129.256 44.7691C128.311 44.9249 127.342 44.7256 126.535 44.2097C125.729 43.6937 125.142 42.8975 124.887 41.9745C124.692 41.3515 124.572 40.7072 124.531 40.0556C124.531 39.839 124.594 39.5595 124.314 39.5292C123.974 39.4966 124.035 39.8692 123.974 40.0556V40.2419C123.944 41.6671 123.911 43.0621 123.851 44.4873C123.788 45.2302 124.128 45.6331 124.782 45.8846C126.361 46.4738 128.005 46.5669 129.647 46.4132C131.001 46.2894 132.253 45.6448 133.14 44.6154C135.339 42.042 135.558 39.131 134.538 36.0616C133.825 33.9867 132.307 32.622 130.602 31.3831" fill="white"/>
<path d="M63.4532 31.3831C62.5542 30.7334 61.625 30.0813 60.8915 29.2453C59.4336 27.6035 59.5571 24.9696 61.1383 23.7912C61.6557 23.3893 62.2744 23.1388 62.9257 23.0676C63.577 22.9965 64.2352 23.1075 64.8272 23.3883C66.1895 23.9775 66.6902 25.2164 66.8416 26.6114C66.8719 26.828 66.7484 27.168 67.0884 27.168C67.4285 27.168 67.3679 26.7977 67.3982 26.6114C67.4285 25.8988 67.3982 25.1862 67.3982 24.4735H67.4611C67.4611 23.8843 67.4285 23.2649 67.4611 22.6757C67.4789 22.5899 67.4793 22.5014 67.4621 22.4155C67.445 22.3296 67.4108 22.2481 67.3614 22.1757C67.3121 22.1033 67.2487 22.0416 67.175 21.9943C67.1013 21.9469 67.0188 21.9149 66.9324 21.9002C65.6646 21.5394 64.3454 21.393 63.0293 21.467C61.7654 21.5131 60.5483 21.9575 59.5521 22.7367C58.5558 23.5159 57.8313 24.59 57.4821 25.8056C56.6763 28.6864 57.2958 31.2597 59.3102 33.4907C60.3628 34.6668 61.6646 35.5051 62.8733 36.4972C64.3311 37.6616 65.1672 39.0985 65.0438 41.0198C64.9203 42.941 63.7419 44.5526 62.1001 44.7691C61.1551 44.9251 60.1857 44.7259 59.3787 44.21C58.5717 43.694 57.9841 42.8978 57.7289 41.9746C57.5389 41.3501 57.4248 40.705 57.3889 40.0533C57.3889 39.8367 57.4518 39.5573 57.1421 39.527C56.8324 39.4967 56.8929 39.867 56.7997 40.0533V40.2396C56.7695 41.6369 56.7066 43.0342 56.6763 44.4315C56.646 45.3933 56.7392 45.547 57.6684 45.887C59.2171 46.5088 60.8286 46.5693 62.4704 46.383C63.8241 46.2617 65.0771 45.6177 65.9636 44.5875C68.1644 42.0142 68.3809 39.1008 67.3609 36.0035C66.6786 33.9891 65.1602 32.5941 63.4555 31.3855" fill="white"/>
<path d="M78.9467 45.4118H78.4204C77.3678 45.349 76.9649 44.9461 76.902 43.8934C76.8415 43.1505 76.8089 42.3751 76.8089 41.6298V25.9593C76.8089 25.3095 76.8415 24.69 76.902 24.038C76.9952 22.8293 77.1815 22.6407 78.3901 22.459C78.6067 22.4264 78.9467 22.4893 78.9164 22.1493C78.8862 21.8093 78.5764 21.8396 78.3272 21.8396H71.8205C71.5714 21.8396 71.2314 21.807 71.2011 22.1493C71.1708 22.4916 71.5411 22.459 71.7903 22.4893C72.9361 22.6454 73.2458 22.9854 73.3389 24.1311C73.3692 24.5037 73.4018 24.8764 73.4018 25.2792C73.4018 28.2834 73.4321 31.2899 73.4321 34.2964C73.4321 37.3029 73.4624 40.37 73.3389 43.3788C73.3087 43.9656 73.3087 44.5432 72.9663 45.0509C72.624 45.5585 72.1303 45.4235 71.6645 45.4537C71.4479 45.484 71.2616 45.5772 71.2942 45.8264C71.3268 46.0756 71.5108 46.1361 71.7274 46.1361C72.0674 46.1361 72.4097 46.1664 72.7497 46.1361C74.3589 46.0127 75.9752 46.0127 77.5844 46.1361C78.0501 46.1664 78.5438 46.1361 79.0096 46.1361C79.2891 46.1361 79.5685 46.1664 79.5685 45.7961C79.5685 45.4258 79.2262 45.4235 78.9467 45.4235" fill="white"/>
<path d="M184.866 28.9029C183.75 25.093 181.179 22.7688 177.213 22.0865C174.763 21.6836 172.323 21.8396 169.961 21.8396C168.257 21.9933 166.645 21.7767 165.034 21.807L164.507 21.8396C164.351 21.8699 164.198 21.9304 164.198 22.1168L164.507 22.4265L164.88 22.4591C166.335 22.5825 166.769 23.0483 166.801 24.4735V40.0905C166.801 41.2992 166.769 42.4776 166.675 43.6862C166.582 44.8949 166.398 45.4515 165.097 45.4212C164.88 45.4212 164.631 45.4817 164.631 45.7612C164.631 46.1035 164.88 46.1338 165.127 46.1035C165.653 46.1035 166.212 46.0709 166.738 46.0407C167.708 45.9778 168.682 45.9778 169.652 46.0407C171.727 46.1967 173.774 46.5064 175.849 46.227C178.979 45.7938 181.643 44.492 183.347 41.7021C185.828 37.7058 186.168 33.3673 184.866 28.8936V28.9029ZM180.907 40.4538C179.885 43.118 177.747 44.4501 174.926 44.6457C173.971 44.7455 173.005 44.6721 172.076 44.4291C170.867 44.0565 170.464 43.4976 170.371 42.2284C170.185 39.2848 170.278 36.3411 170.278 34.7296V24.6854C170.278 23.7539 170.432 23.5699 171.363 23.4768C176.042 23.0739 179.915 25.3678 181.186 29.8298C182.209 33.4231 182.239 36.9862 180.907 40.4585" fill="#FCFDFF"/>
<path d="M206.403 45.4119C205.567 45.4421 204.977 45.0393 204.54 44.3266C204.053 43.4832 203.658 42.5901 203.361 41.6625C201.163 35.186 198.992 28.7399 196.792 22.2634C196.668 21.8908 196.608 21.3319 196.079 21.3645C195.613 21.3948 195.553 21.8908 195.429 22.2634C193.566 27.7781 191.68 33.2648 189.819 38.7794C189.232 40.4841 188.673 42.1585 188.054 43.8306C187.681 44.8227 187.032 45.4608 185.853 45.4119C185.606 45.3816 185.357 45.4421 185.357 45.7845C185.357 46.1268 185.667 46.1245 185.916 46.1245C187.779 46.0616 189.665 45.9684 191.524 46.1245C191.773 46.1547 192.083 46.1873 192.083 45.7845C192.083 45.3816 191.773 45.4119 191.524 45.4119C190.315 45.505 190.161 44.8529 190.359 43.9237C190.762 42.0025 191.505 40.1744 192.031 38.2834C192.125 38.0062 192.281 37.9736 192.528 37.9736H198.138C198.385 37.9736 198.571 38.0062 198.631 38.2531C199.283 40.4235 199.966 42.5917 200.615 44.7295C200.66 44.8385 200.666 44.9594 200.632 45.0722C200.598 45.1849 200.526 45.2826 200.429 45.349C200.275 45.4421 200.026 45.505 200.089 45.7519C200.15 46.0616 200.429 45.9684 200.646 45.9684C202.537 46.1245 204.428 46.0616 206.316 46.0616C206.566 46.0616 206.875 46.0942 206.906 45.7216C206.999 45.3816 206.689 45.4119 206.41 45.4119H206.403ZM197.113 36.1781H193.177C192.993 36.1781 192.712 36.2689 192.837 35.866C193.706 33.1716 194.542 30.5098 195.441 27.6244C196.247 30.2885 197.022 32.799 197.795 35.3095C198.044 36.1781 198.044 36.1781 197.113 36.1781Z" fill="#FCFDFF"/>
<path d="M222.951 21.8396C221.216 21.9001 219.481 21.9304 217.746 21.8396H217.56L217.25 22.0561L217.467 22.4264C218.303 22.8922 218.426 23.0482 218.117 23.9448C217.064 27.2308 215.359 30.2047 214.027 33.5512C212.509 30.2373 211.051 27.0445 209.626 23.8843L209.472 23.4185C209.316 22.9527 209.409 22.6127 209.938 22.459C210.124 22.3961 210.341 22.3333 210.31 22.0864C210.28 21.8396 210.063 21.807 209.845 21.8396C207.8 21.9001 205.785 21.9001 203.741 21.8396C203.524 21.8396 203.275 21.8396 203.245 22.1493C203.245 22.3961 203.461 22.4264 203.648 22.4893C204.004 22.5529 204.343 22.6871 204.647 22.8838C204.951 23.0806 205.212 23.336 205.415 23.6351C205.813 24.156 206.156 24.7172 206.437 25.3095C207.863 28.16 209.318 31.0104 210.743 33.8935C211.131 34.6183 211.383 35.4074 211.489 36.2223C211.679 38.8431 211.668 41.4746 211.456 44.0937C211.396 45.1161 211.023 45.3955 210.031 45.4561L209.691 45.4863L209.411 45.8287L209.719 46.1337H210.185C211.982 46.1035 213.778 45.9474 215.576 46.1035C216.195 46.164 216.847 46.1337 217.497 46.1337C217.595 46.1481 217.695 46.1238 217.776 46.0661C217.857 46.0083 217.912 45.9216 217.93 45.824C217.963 45.5748 217.746 45.4817 217.527 45.4514C217.291 45.4261 217.053 45.416 216.815 45.4211C215.669 45.3582 215.296 45.0182 215.173 43.8725C214.987 41.702 215.112 39.5339 215.08 37.3634C215.08 36.8674 215.112 36.3714 215.143 35.8753C215.266 34.6364 215.855 33.5465 216.351 32.4683C217.714 29.5852 219.015 26.7045 220.69 23.9774C220.923 23.572 221.244 23.2246 221.631 22.9616C222.017 22.6986 222.458 22.5267 222.921 22.459C223.168 22.4264 223.387 22.3659 223.354 22.0864C223.417 21.807 223.168 21.807 222.951 21.8396Z" fill="#FCFDFF"/>
<path d="M22.3006 33.5513C21.8348 33.5839 21.6811 33.677 21.6811 34.1731C21.7114 36.5578 21.6811 38.9122 21.6811 41.2992C21.6606 41.9421 21.7019 42.5855 21.8045 43.2205C21.8977 43.6537 22.0514 44.0263 22.424 44.2428C23.6955 45.0183 25.9172 45.0486 26.8487 43.0668C27.2819 42.1679 27.4076 41.2037 27.4379 40.1534C27.4033 38.5207 26.9094 36.9307 26.0127 35.5657C25.144 34.2033 23.968 33.4278 22.2866 33.5513" fill="#141414" fill-opacity="0.5"/>
<path d="M21.7114 27.6966V31.4763C21.7114 31.6929 21.6508 31.9095 21.928 32.0329C23.0435 32.5615 24.9345 32.0026 25.4934 30.8871C26.546 28.6864 26.3597 26.5183 25.0905 24.4736C24.5013 23.5118 23.5092 23.202 22.3937 23.3255C21.8977 23.3883 21.7114 23.542 21.7114 24.0707C21.7417 25.2467 21.7114 26.488 21.7114 27.6966Z" fill="#141414" fill-opacity="0.5"/>
<path d="M171.356 23.5211C170.425 23.6142 170.271 23.8005 170.271 24.7297V34.7692C170.301 36.3505 170.178 39.3244 170.364 42.2704C170.425 43.5396 170.86 44.0985 172.069 44.4688C173.001 44.7785 173.958 44.7482 174.92 44.6877C177.74 44.5014 179.878 43.1693 180.9 40.4958C182.232 37.0259 182.202 33.4302 181.179 29.8974C179.91 25.4028 176.035 23.1089 171.356 23.5211Z" fill="#292525" fill-opacity="0.5"/>
<path d="M195.434 27.6337C194.535 30.4841 193.699 33.1809 192.83 35.8753C192.707 36.3108 192.986 36.1874 193.17 36.1874H197.106C198.038 36.1874 198.038 36.1874 197.758 35.3188C197.015 32.8083 196.24 30.2978 195.429 27.6337" fill="#292525" fill-opacity="0.5"/>
</svg>
